<?xml version="1.0" encoding="UTF-8"?><svg id="Layer_1" xmlns="http://www.w3.org/2000/svg" viewBox="0 0 116.26 197.38"><defs><style>.cls-1{fill:#add580;}.cls-2{fill:#86c544;stroke:#231f20;stroke-miterlimit:10;}</style></defs><path class="cls-2" d="M90.52,97.45c-.14-.15-.27-.31-.37-.48-1.14-1.89-7.57-13.23-4.89-24.91,2.45-10.71-17.13-17.49-23.57-19.42-1.22-.36-2.02-1.52-1.92-2.79,.48-5.73,3.3-20.68,19.63-22.83,20.25-2.67-10.39-7.46-17.59,4.53C51.77,48.26,67.65,15.38,24.4,.64c-1.76-.6-3.57,.74-3.54,2.6,.13,8.2,3.29,27.93,29.59,36.61,.46,.15,.88,.42,1.19,.79,1.19,1.39,4.09,5.06,3.95,7.76-.18,3.4-3.11-.87-16.17,8.19-13.06,9.06-10.39,29.32-10.39,29.32,0,0,2.4,8.53-17.06,26.12-19.45,17.59-19.99,90.61,45.44,84.48,65.32-6.12,74.99-56.34,33.12-99.06Z"/><path class="cls-1" d="M45.61,113.81s-27.7,.49-29.93,34.67,29.93-34.67,29.93-34.67Z"/></svg>